<svg width="30" height="19" viewBox="0 0 30 19" fill="none" xmlns="http://www.w3.org/2000/svg">
<path d="M18.3961 9.90723C18.3961 9.31794 18.3348 8.8637 18.2488 8.40946H9.75328V11.5032H14.8604C14.6517 12.8168 13.3135 15.3827 9.75328 15.3827C6.68408 15.3827 4.17962 12.8414 4.17962 9.69852C4.17962 6.55566 6.68408 4.01437 9.75328 4.01437C11.5089 4.01437 12.6752 4.76325 13.3381 5.40165L15.7812 3.05678C14.2098 1.58357 12.1841 0.699636 9.75328 0.699636C4.78118 0.699636 0.754395 4.72642 0.754395 9.69852C0.754395 14.6706 4.78118 18.6974 9.75328 18.6974C14.9464 18.6974 18.3961 15.0512 18.3961 9.90723ZM29.0401 8.40946H26.4743V5.84361H23.8961V8.40946H21.3303V10.9876H23.8961V13.5534H26.4743V10.9876H29.0401V8.40946Z" fill="white"/>
</svg>
