<?xml version="1.0" encoding="utf-8"?><svg xmlns="http://www.w3.org/2000/svg" xmlns:xlink="http://www.w3.org/1999/xlink"><symbol fill="none" viewBox="0 0 12 22" id="facebook" xmlns="http://www.w3.org/2000/svg"><path d="M11.436.846c-.331-.05-1.473-.147-2.8-.147-2.774 0-4.677 1.694-4.677 4.8v2.676H.83v3.634h3.13v9.318h3.757V11.81h3.119l.478-3.634H7.716v-2.32c0-1.044.283-1.768 1.793-1.768h1.927V.846z" fill="#fff"/></symbol><symbol fill="none" viewBox="0 0 30 19" id="google" xmlns="http://www.w3.org/2000/svg"><path d="M18.396 9.907a7.63 7.63 0 00-.147-1.498H9.753v3.094h5.107c-.208 1.314-1.546 3.88-5.107 3.88-3.069 0-5.573-2.542-5.573-5.684 0-3.143 2.504-5.685 5.573-5.685 1.756 0 2.922.75 3.585 1.388l2.443-2.345C14.21 1.584 12.184.7 9.753.7A8.996 8.996 0 00.754 9.699a8.996 8.996 0 009 8.998c5.192 0 8.642-3.646 8.642-8.79zM29.04 8.41h-2.566V5.844h-2.578v2.565H21.33v2.579h2.566v2.565h2.578v-2.565h2.566V8.409z" fill="#fff"/></symbol><symbol fill="none" viewBox="0 0 20 20" id="pinterest" xmlns="http://www.w3.org/2000/svg"><path d="M19.519 9.699c0-5.206-4.223-9.43-9.429-9.43C4.885.27.662 4.494.662 9.7a9.43 9.43 0 005.647 8.642c-.025-.663-.012-1.46.16-2.173 0 0 .184-.76 1.215-5.131-.307-.602-.307-1.498-.307-1.498 0-1.4.81-2.443 1.817-2.443.86 0 1.277.65 1.277 1.424 0 .86-.553 2.148-.835 3.34-.233 1.006.503 1.816 1.485 1.816 1.793 0 2.996-2.296 2.996-5.009 0-2.075-1.4-3.621-3.929-3.621-2.86 0-4.64 2.136-4.64 4.517 0 .823.245 1.4.626 1.854.172.209.196.283.135.528-.05.172-.147.59-.196.75-.062.245-.258.33-.467.245-1.314-.54-1.927-1.99-1.927-3.61 0-2.676 2.258-5.893 6.727-5.893 3.61 0 5.979 2.615 5.979 5.402 0 3.708-2.063 6.47-5.095 6.47-1.019 0-1.976-.552-2.296-1.179-.552 2.173-.663 2.59-.663 2.59-.196.725-.601 1.45-.957 2.014a9.22 9.22 0 002.676.393c5.206 0 9.429-4.223 9.429-9.428z" fill="#fff"/></symbol><symbol fill="none" viewBox="0 0 20 17" id="twitter" xmlns="http://www.w3.org/2000/svg"><path d="M19.992 2.707a7.95 7.95 0 01-2.284.614 3.954 3.954 0 001.744-2.185 7.806 7.806 0 01-2.517.958A3.956 3.956 0 0014.038.84a3.964 3.964 0 00-3.966 3.966c0 .307.037.614.099.908a11.271 11.271 0 01-8.177-4.15 3.936 3.936 0 00-.54 2.002c0 1.375.7 2.59 1.768 3.302a3.994 3.994 0 01-1.793-.503v.049a3.966 3.966 0 003.18 3.892 4.194 4.194 0 01-1.043.135c-.258 0-.504-.025-.75-.062a3.972 3.972 0 003.708 2.75 7.941 7.941 0 01-4.923 1.695c-.331 0-.638-.013-.957-.05a11.205 11.205 0 006.089 1.78c7.292 0 11.282-6.04 11.282-11.282 0-.172 0-.343-.012-.515a8.526 8.526 0 001.989-2.05z" fill="#fff"/></symbol><symbol fill="none" viewBox="0 0 22 22" id="up" xmlns="http://www.w3.org/2000/svg"><path fill-rule="evenodd" clip-rule="evenodd" d="M.747 10.44l9.9-9.9 10.571 10.572-1.06 1.06-9.46-9.458-8.838 8.838L.747 10.44z" fill="#2B4074"/></symbol></svg>