<svg width="20" height="17" viewBox="0 0 20 17" fill="none" xmlns="http://www.w3.org/2000/svg">
<path d="M19.9919 2.70745C19.2799 3.01437 18.5064 3.23535 17.7084 3.32129C18.531 2.83022 19.1571 2.05678 19.4517 1.13602C18.6906 1.59026 17.8312 1.92173 16.935 2.09361C16.2107 1.32017 15.1794 0.841378 14.0377 0.841378C11.8401 0.841378 10.0723 2.62151 10.0723 4.80678C10.0723 5.1137 10.1091 5.42062 10.1705 5.71526C6.8803 5.54339 3.94615 3.97196 1.99414 1.56571C1.65039 2.15499 1.45396 2.83022 1.45396 3.56682C1.45396 4.94182 2.15374 6.15723 3.22182 6.86928C2.57115 6.84473 1.95731 6.66057 1.42941 6.36593C1.42941 6.37821 1.42941 6.40276 1.42941 6.41504C1.42941 8.34249 2.79213 9.93848 4.6091 10.3068C4.27762 10.3927 3.9216 10.4418 3.56557 10.4418C3.30776 10.4418 3.06222 10.4173 2.81669 10.3804C3.32003 11.9519 4.78097 13.0936 6.52427 13.1304C5.16155 14.1985 3.45508 14.8246 1.60128 14.8246C1.26981 14.8246 0.962891 14.8124 0.643694 14.7755C2.39927 15.905 4.48633 16.5557 6.73298 16.5557C14.0254 16.5557 18.0153 10.5155 18.0153 5.2733C18.0153 5.10142 18.0153 4.92955 18.0031 4.75767C18.7765 4.19294 19.4517 3.49316 19.9919 2.70745Z" fill="white"/>
</svg>
